PathFileType        4      (X/Y/Z)      C:\Users\pc\Desktop\IMUTRC\Sujet_05\Sujet_05_velo_100.trc         
DataRate	CameraRate	NumFrames	NumMarkers	Units	OrigDataRate	OrigDataStartFrame	OrigNumFrames
60.0	60.0	4	64	mm	60.0	241	963
Frame#	Time	pHipOrigin			pRightASI			pLeftASI			pRightCSI			pLeftCSI			pRightIschialTub			pLeftIschialTub			pSacrum			pL5SpinalProcess			pL3SpinalProcess			pT12SpinalProcess			pIJ			pT4SpinalProcess			pT8SpinalProcess			pPX			pC7SpinalProcess			pTopOfHead			pRightAuricularis			pLeftAuricularis			pBackOfHead			pRightAcromion			pLeftAcromion			pRightArmLatEpicondyle			pRightArmMedEpicondyle			pLeftArmLatEpicondyle			pLeftArmMedEpicondyle			pRightUlnarStyloid			pRightRadialStyloid			pRightOlecranon			pLeftUlnarStyloid			pLeftRadialStyloid			pLeftOlecranon			pRightTopOfHand			pRightPinky			pRightBallHand			pLeftTopOfHand			pLeftPinky			pLeftBallHand			pRightGreaterTrochanter			pRightKneeLatEpicondyle			pRightKneeMedEpicondyle			pRightPatella			pLeftGreaterTrochanter			pLeftKneeLatEpicondyle			pLeftKneeMedEpicondyle			pLeftPatella			pRightTibialTub			pRightLatMalleolus			pRightMedMalleolus			pLeftTibialTub			pLeftLatMalleolus			pLeftMedMalleolus			pRightHeelFoot			pRightFirstMetatarsal			pRightFifthMetatarsal			pRightPivotFoot			pRightHeelCenter			pRightToe			pLeftHeelFoot			pLeftFirstMetatarsal			pLeftFifthMetatarsal			pLeftPivotFoot			pLeftHeelCenter			pLeftToe			
		X1	Y1	Z1	X2	Y2	Z2	X3	Y3	Z3	X4	Y4	Z4	X5	Y5	Z5	X6	Y6	Z6	X7	Y7	Z7	X8	Y8	Z8	X9	Y9	Z9	X10	Y10	Z10	X11	Y11	Z11	X12	Y12	Z12	X13	Y13	Z13	X14	Y14	Z14	X15	Y15	Z15	X16	Y16	Z16	X17	Y17	Z17	X18	Y18	Z18	X19	Y19	Z19	X20	Y20	Z20	X21	Y21	Z21	X22	Y22	Z22	X23	Y23	Z23	X24	Y24	Z24	X25	Y25	Z25	X26	Y26	Z26	X27	Y27	Z27	X28	Y28	Z28	X29	Y29	Z29	X30	Y30	Z30	X31	Y31	Z31	X32	Y32	Z32	X33	Y33	Z33	X34	Y34	Z34	X35	Y35	Z35	X36	Y36	Z36	X37	Y37	Z37	X38	Y38	Z38	X39	Y39	Z39	X40	Y40	Z40	X41	Y41	Z41	X42	Y42	Z42	X43	Y43	Z43	X44	Y44	Z44	X45	Y45	Z45	X46	Y46	Z46	X47	Y47	Z47	X48	Y48	Z48	X49	Y49	Z49	X50	Y50	Z50	X51	Y51	Z51	X52	Y52	Z52	X53	Y53	Z53	X54	Y54	Z54	X55	Y55	Z55	X56	Y56	Z56	X57	Y57	Z57	X58	Y58	Z58	X59	Y59	Z59	X60	Y60	Z60	X61	Y61	Z61	X62	Y62	Z62	X63	Y63	Z63	X64	Y64	Z64	
241	4.0	0.0	1249.9765	7.653898598672058E-14	72.37957000000002	1340.69148	120.82125000000009	52.006899999999995	1344.48306	-128.17804999999993	29.200830000000007	1403.33744	104.24016000000009	12.280189999999992	1406.44993	-102.93857999999992	-47.59282	1196.1587	55.232570000000074	-56.02484	1197.74324	-48.38508999999993	-62.13664	1269.67009	5.376120000000082	-26.25811	1370.00549	3.3388500000000856	32.48309	1475.03792	1.4147700000000885	93.88406	1566.60175	-0.5093199999999098	355.16355	1587.7101	-8.601789999999923	245.26431	1697.04344	-4.753619999999911	168.69703	1645.94199	-2.7163599999999093	253.46997	1513.57622	-5.942029999999923	295.34713	1728.90403	-4.244309999999912	566.30364	1783.06138	-63.04209999999993	492.11317	1738.18491	32.256730000000076	449.50033	1751.31397	-107.18287999999991	452.21669	1798.05793	-26.76742999999992	291.44237	1657.71286	192.01242000000008	295.96963	1655.22287	-198.35057999999992	366.02898	1405.77084	177.69496000000007	351.65493	1401.80949	122.34920000000005	394.15458	1424.55897	-205.02828999999994	376.72463	1412.05241	-151.83297999999994	468.40164	1188.74531	152.62525000000005	511.29743	1214.21115	154.09661000000006	334.90406	1396.60314	151.49344000000005	498.96065	1211.89093	-232.02207999999993	537.32918	1240.29949	-246.50930999999994	363.65216	1409.73219	-172.20564999999993	554.24981	1124.00549	302.36438	513.10834	1122.19459	226.53278000000003	503.71427	1167.86332	170.96066000000005	619.38577	1174.08831	-378.47894	563.47411	1159.26153	-314.4748	538.4044	1196.10211	-257.20496	13.129050000000008	1215.56933	148.0414000000001	310.57004	1010.1449	165.92408000000003	332.52725	1026.72599	101.01449000000004	340.22359	1051.11661	145.55141000000003	-14.657000000000009	1221.56795	-149.6259499999999	241.98205	975.34159	-216.62938999999997	274.35196	984.16975	-154.71910999999997	280.06763	1009.91854	-198.80330999999998	369.93374	992.09245	142.77846000000002	311.36231	619.83849	134.0069	325.84954	623.74326	76.22774000000003	276.21945	931.48376	-195.12490999999997	2.716359999999991	676.99515	-144.92890999999997	23.371979999999994	672.86403	-89.07383999999996	262.63767	547.96824	96.03450000000001	424.31745	514.91924	74.47343	415.60247	511.97652	152.3423	441.69081	508.63767	114.59627	301.17598	542.30917	100.16563000000001	520.12559	491.15113	122.68875	-73.3982	648.19046	-95.07245999999996	45.10283	539.0269	-53.47825999999996	31.124909999999993	522.5024	-128.85713999999996	53.53484999999999	514.80606	-89.41338999999998	-44.53692000000001	621.70599	-94.61973999999995	108.99379	456.12145	-86.86679999999997	
242	4.017	0.0	1249.9765	7.653898598672058E-14	72.94548000000002	1339.50307	121.38716000000008	50.47894999999999	1346.29396	-127.44236999999991	29.427190000000007	1402.14903	105.88129000000009	10.695649999999995	1407.80811	-101.07107999999991	-46.85714	1195.25325	54.949620000000074	-56.19462	1198.08279	-48.55485999999993	-62.19324	1269.33054	6.168390000000081	-26.76743	1369.83571	4.923400000000085	31.35128	1475.20769	2.772950000000088	92.18633	1567.11107	0.16977000000009032	353.23947	1589.80396	-11.035199999999923	242.71773	1698.4582	-6.677709999999911	166.48999	1646.84744	-3.2822599999999094	252.0552	1515.04758	-6.564529999999923	292.57418	1730.60175	-7.017249999999912	562.68184	1786.34364	-68.19184999999992	489.4534	1741.18422	27.729470000000077	445.82193	1753.69078	-111.42718999999991	448.76465	1800.71769	-31.181499999999918	290.81987	1660.71217	190.3146900000001	290.48032	1655.78878	-200.5576199999999	364.50103	1407.8647	177.07246000000006	350.12698	1403.84676	121.67011000000005	391.15527	1425.86056	-205.14146999999994	374.461	1413.91991	-151.60661999999994	467.38301	1191.12212	153.30434000000005	510.22221	1216.70114	154.94548000000006	333.37611	1398.58382	150.70117000000005	497.77224	1214.09797	-231.28639999999993	535.971	1242.78948	-245.83021999999994	360.9924	1411.14696	-172.14905999999993	552.4955	1127.23117	303.89233	511.75016	1125.02413	227.83436000000003	502.58246	1170.35332	171.97929000000005	618.53691	1176.40853	-377.46031	562.51206	1161.63834	-313.51276	537.27259	1198.47892	-256.41269	10.75224000000001	1212.0607	146.9095900000001	289.63146	981.79294	159.47274000000002	313.34299	998.37403	95.24223000000005	322.79364	1020.67078	140.51483000000002	-13.24224000000001	1223.88817	-150.2484399999999	259.63836	997.24221	-222.00551999999996	291.15941	1006.74946	-159.69909999999996	295.23395	1033.91302	-203.10419999999996	350.40993	965.15526	137.85507000000004	300.61007	591.59971	130.38509	315.77639	595.50447	72.83230000000003	290.81987	953.72392	-199.99170999999998	9.733609999999992	708.34643	-146.79640999999995	30.445819999999994	703.93235	-90.99792999999995	252.22498	519.67286	90.60179000000001	414.07452	486.90682	69.71981	404.73705	482.49274	147.41891	431.10834	479.83298	109.84265	290.76328	513.90061	94.90269000000002	509.48653	462.06348	118.27467	-67.06004	681.0131	-96.03449999999995	49.17736	568.90682	-55.74188999999996	34.067629999999994	552.89164	-131.00758999999996	56.70392999999999	544.5728	-91.79019999999997	-38.87785000000001	653.84953	-95.92131999999995	110.80469	484.36024	-89.86610999999998	
243	4.033	0.0	1249.9765	7.653898598672058E-14	73.62457000000002	1338.59762	121.61352000000008	49.00758999999999	1347.76532	-126.93304999999991	29.653550000000006	1401.24358	107.12629000000008	9.167699999999995	1408.82674	-99.59971999999992	-46.17805	1194.51757	54.779850000000074	-56.42098	1198.30915	-48.55485999999993	-62.24983	1268.991	6.847480000000081	-27.27674	1369.60935	6.168390000000085	30.27605	1475.32087	3.6218100000000883	90.60179	1567.5638	0.22636000000009043	351.37197	1591.67146	-13.808139999999923	240.28433	1699.7032	-9.16769999999991	164.39613	1647.6963	-4.527259999999909	250.75362	1516.34917	-7.583159999999922	289.85783	1732.1297	-10.29951999999991	559.06003	1789.79568	-73.73774999999992	486.85023	1744.29671	22.749480000000077	442.20013	1756.011	-116.18080999999991	445.25603	1803.26427	-35.991719999999916	290.0276	1663.5983	188.0510600000001	284.70807	1656.18491	-203.4437499999999	362.69012	1409.84538	176.28019000000006	348.71221	1405.82743	120.82125000000006	387.9296	1426.99237	-205.76396999999994	372.25396	1415.73081	-151.77638999999994	466.53415	1193.49893	153.64389000000006	509.26017	1219.19114	155.51138000000006	331.79157	1400.5079	149.79572000000005	496.97997	1216.3616	-230.72048999999996	534.89578	1245.27947	-245.26430999999994	358.33263	1412.39196	-172.60178999999994	551.02414	1130.34366	304.91097	510.61834	1127.79707	228.68322000000003	501.62042	1172.8999	172.60179000000005	618.14077	1178.72875	-376.49827	562.00275	1163.95856	-312.60731	536.48032	1200.91232	-255.67700999999994	8.318840000000009	1209.74048	146.0607300000001	265.41062	955.19528	153.70048000000003	290.6501	970.92751	89.80952000000005	301.96825	991.35677	135.59144000000003	-11.940650000000009	1225.92543	-150.7011699999999	276.559	1021.12351	-226.75913999999997	307.28778	1031.53621	-164.22635999999997	309.43823	1059.83158	-207.06555999999998	327.71704	938.5576	132.64872000000003	283.18012	564.37956	126.08419000000002	298.79916	568.28432	68.64458000000002	305.87301	978.11454	-204.57555999999997	20.768809999999988	737.94339	-149.11662999999993	41.877159999999996	733.13318	-93.48791999999996	234.3423	493.47135	84.03726000000002	396.02207	459.46031	63.72119000000001	385.89233	453.17873	141.25051	412.60316	451.19806	103.84403	272.76742	487.13318	88.50793000000002	490.75499	432.35334	112.50241	-55.685300000000005	711.34574	-97.39267999999996	59.873009999999994	597.65492	-59.64664999999997	43.46169999999999	582.37542	-134.79916999999998	66.60731	573.49067	-96.03449999999997	-27.786060000000006	683.84263	-97.84540999999996	120.08557	512.59902	-95.35541999999998	
244	4.05	0.0	1249.9765	7.653898598672058E-14	74.24707000000001	1337.63558	121.95307000000008	47.87577999999999	1349.06691	-126.31055999999991	30.049690000000005	1400.28154	108.37129000000009	8.149069999999995	1409.73219	-98.18494999999992	-45.66874	1193.89507	54.61007000000007	-56.64734	1198.64869	-48.66804999999993	-62.19324	1268.76463	7.4699800000000804	-27.5031	1369.49617	7.300210000000085	29.71014	1475.37746	4.527260000000089	89.63975	1567.84675	0.5093200000000906	350.18357	1592.91645	-15.958589999999923	238.6432	1700.49547	-10.97860999999991	163.03795	1648.26221	-5.206349999999908	249.90476	1517.25462	-8.205659999999924	288.10351	1733.14833	-12.789509999999911	556.57003	1791.94612	-78.32159999999992	485.15251	1746.39057	18.731540000000077	439.59695	1757.42577	-119.91579999999992	442.87922	1804.962	-39.95306999999991	289.97101	1665.57898	186.4099300000001	280.2374	1656.18491	-205.53760999999992	361.44513	1411.03378	176.05383000000006	347.80675	1406.95925	120.53830000000008	385.32642	1427.4451	-206.04691999999994	370.49965	1416.86263	-151.66320999999994	465.96824	1194.9137	154.32298000000006	508.58108	1220.71909	156.36024000000006	330.77294	1401.58313	149.39958000000004	496.35748	1217.71978	-229.58867999999995	534.04692	1246.9206	-244.24567999999994	356.18219	1413.01446	-172.65837999999994	550.11869	1132.21115	305.98619	509.82607	1129.4382	229.70186000000004	500.99792	1174.42785	173.45065000000005	617.91441	1179.97375	-374.91372	561.71979	1165.26015	-311.13595	535.85782	1202.38368	-254.43201999999994	6.111800000000009	1208.04276	145.3816400000001	241.98205	933.63421	148.49413000000004	268.29675	948.29121	84.77294000000005	281.25603	967.02275	130.83782000000002	-10.46929000000001	1228.18906	-151.2104899999999	291.38578	1044.94821	-230.26776999999998	321.09592	1055.92682	-167.33884999999998	321.54865	1085.29742	-209.44236999999998	305.9296	915.58176	128.23464000000004	262.41131	541.23394	122.40579000000001	278.65286	545.02552	65.13595000000001	320.13388	1002.16561	-207.63145999999998	35.25603999999999	761.82469	-151.71979999999994	56.47756999999999	756.95788	-96.14768999999995	212.49827	472.08004	77.86887000000002	373.61214	435.0131	58.741200000000006	362.35058	426.97721	135.93098	389.51414	425.39267	98.80745	250.69703	464.77984	82.67909000000002	466.98688	404.62387	107.91856	-40.29261000000001	734.2084	-99.26017999999996	77.13319	621.47963	-64.45686999999995	59.873009999999994	606.9358	-139.60937999999996	83.64113	597.88128	-101.24084999999995	-12.053830000000005	707.04484	-100.44857999999996	137.74189	537.89509	-102.03311999999998	
